<svg xmlns="http://www.w3.org/2000/svg" width="25" height="25" enable-background="new" viewBox="0 0 6.615 6.615"><path d="m 3.8005274,0.80968809 c -0.071773,0.005 -0.1437561,0.0302 -0.2072217,0.0796 L 1.78463,2.2959081 C 1.713357,2.1887781 1.5921721,2.1176181 1.4549353,2.1176181 H 0.92525274 c -0.21761979,0 -0.39635641,0.17874 -0.39635906,0.39636 v 1.58802 c 2.65e-6,0.21762 0.17873927,0.39636 0.39635906,0.39636 H 1.4549353 c 0.1372421,0 0.2584239,-0.0711 0.3296947,-0.17829 l 1.8086757,1.40508 c 0.2538625,0.19745 0.6387227,0.009 0.6387201,-0.31264 v -4.20904 C 4.2320284,0.96226809 4.0158559,0.79498809 3.8005274,0.80968809 Z m 0.027906,0.25735001 c 0.073057,-0.008 0.140044,0.0474 0.140044,0.13643 v 4.20904 c 0,0.11874 -0.1191816,0.17625 -0.2129076,0.10335 L 1.901936,4.0766781 c -0.032308,-0.0251 -0.050641,-0.0644 -0.050641,-0.10543 v -1.32808 c 0,-0.0409 0.018336,-0.0787 0.050641,-0.10387 l 1.8536338,-1.44125 c 0.023442,-0.0182 0.048511,-0.0282 0.072864,-0.031 z m 2.1223525,0.25373 c -0.073472,7.9e-4 -0.1321752,0.0614 -0.1307412,0.13488 v 3.7052 c -0.00159,0.17868 0.2672266,0.17868 0.2656152,0 v -3.7052 c 0.00159,-0.0751 -0.059783,-0.13635 -0.134874,-0.13488 z m -0.529167,0.52917 c -0.073472,7.9e-4 -0.1321753,0.0614 -0.1307412,0.13487 v 2.64635 c -0.00159,0.17861 0.2671498,0.17861 0.2656152,0 v -2.64635 c 0.00159,-0.0751 -0.059783,-0.13635 -0.134874,-0.13487 z m -4.49636616,0.53123 H 1.4549353 c 0.074631,0 0.1328076,0.0582 0.1328076,0.13281 v 1.58802 c 0,0.0746 -0.058174,0.13074 -0.1328076,0.13074 H 0.92525274 c -0.074631,0 -0.1328076,-0.0561 -0.13281025,-0.13074 v -1.58802 c 2.65e-6,-0.0746 0.0581766,-0.13281 0.13281025,-0.13281 z m 3.96719946,0.12403 c -0.00466,9e-5 -0.00931,5.3e-4 -0.013943,0.001 -0.067352,0.008 -0.1180015,0.065 -0.1173057,0.13281 v 1.32447 c 0,0.17742 0.2661338,0.17742 0.2661338,0 v -1.32447 c 7.938e-4,-0.0747 -0.060195,-0.13529 -0.134874,-0.13384 z" color="#000" font-family="sans-serif" font-weight="400" overflow="visible" style="line-height:normal;font-variant-ligatures:normal;font-variant-position:normal;font-variant-caps:normal;font-variant-numeric:normal;font-variant-alternates:normal;font-feature-settings:normal;text-indent:0;text-align:start;text-decoration-line:none;text-decoration-style:solid;text-decoration-color:#000;text-transform:none;text-orientation:mixed;shape-padding:0;isolation:auto;mix-blend-mode:normal"/></svg>